<!DOCTYPE svg PUBLIC "-//W3C//DTD SVG 1.1//EN" "http://www.w3.org/Graphics/SVG/1.1/DTD/svg11.dtd">

<!-- Uploaded to: SVG Repo, www.svgrepo.com, Transformed by: SVG Repo Mixer Tools -->
<svg width="90px" height="90px" viewBox="0 0 36.00 36.00" xmlns="http://www.w3.org/2000/svg" xmlns:xlink="http://www.w3.org/1999/xlink" aria-hidden="true" role="img" class="iconify iconify--twemoji" preserveAspectRatio="xMidYMid meet" fill="#000000" transform="rotate(0)matrix(-1, 0, 0, 1, 0, 0)" stroke="#000000" stroke-width="0.18">

<g id="SVGRepo_bgCarrier" stroke-width="0" transform="translate(0,0), scale(1)"/>

<g id="SVGRepo_tracerCarrier" stroke-linecap="round" stroke-linejoin="round" stroke="#525456" stroke-width="0.576"/>

<g id="SVGRepo_iconCarrier">

<path fill="#F3D2A2" d="M27 36v-4s0-4 4-4s4 4 4 4v4h-8zm-9 0v-9s0-4 4-4s4 4 4 4v9h-8zm-9 0V24s0-4 4-4s4 4 4 4v12H9zm-9 0v-9s0-4 4-4s4 4 4 4v9H0z"/>

<path fill="#f0b8bf" d="M16 24c0-1.657 0-8-3-8s-3 6.343-3 8a3 3 0 1 0 6 0zm-9 3c0-1.657 0-8-3-8s-3 6.343-3 8a3 3 0 1 0 6 0zm18 0c0-1.657 0-8-3-8s-3 6.343-3 8a3 3 0 0 0 6 0zm9 5c0-1.657 0-8-3-8s-3 6.343-3 8a3 3 0 0 0 6 0z"/>

<path fill="#f0b8bf" d="M13 16v4h2s2 0 6-4l-2-2s-2 2-6 2z"/>

<path fill="#525456" d="M19 14l8-8l2 2l-8 8z"/>

<path fill="#525456" d="M27 6s-2-2 0-4l2-2h7v5l-3 3c-2 2-4 0-4 0l-2-2z"/>

</g>

</svg>