<!DOCTYPE svg PUBLIC "-//W3C//DTD SVG 1.1//EN" "http://www.w3.org/Graphics/SVG/1.1/DTD/svg11.dtd">

<!-- Uploaded to: SVG Repo, www.svgrepo.com, Transformed by: SVG Repo Mixer Tools -->
<svg fill="#000000" width="130px" height="130px" viewBox="-3.2 -3.2 38.40 38.40" xmlns="http://www.w3.org/2000/svg">

<g id="SVGRepo_bgCarrier" stroke-width="0">

<path transform="translate(-3.2, -3.2), scale(2.4)" fill="#faf5f7" d="M9.166.33a2.25 2.25 0 00-2.332 0l-5.25 3.182A2.25 2.25 0 00.5 5.436v5.128a2.25 2.25 0 001.084 1.924l5.25 3.182a2.25 2.25 0 002.332 0l5.25-3.182a2.25 2.25 0 001.084-1.924V5.436a2.25 2.25 0 00-1.084-1.924L9.166.33z" strokewidth="0"/>

</g>

<g id="SVGRepo_tracerCarrier" stroke-linecap="round" stroke-linejoin="round"/>

<g id="SVGRepo_iconCarrier">

<path d="M21.95 5.005l-3.306-.004c-3.206 0-5.277 2.124-5.277 5.415v2.495H10.05v4.515h3.317l-.004 9.575h4.641l.004-9.575h3.806l-.003-4.514h-3.803v-2.117c0-1.018.241-1.533 1.566-1.533l2.366-.001.01-4.256z"/>

</g>

</svg>